# xmcd CD database file
#
# Track frame offsets:
#	150
#	17121
#	37417
#	55883
#	72930
#	94515
#	116738
#	134812
#	156179
#	180134
#	194713
#	212807
#	232094
#	245934
#	265562
#
# Disc length: 3826 seconds
#
# Revision: 0
# Processed by: cddbd v1.5.2PL0 Copyright (c) Steve Scherf et al.
# Submitted via: CDex 1.50
#
DISCID=e50ef00f
DTITLE=Oscar d'Leon - Grandes Exitos
DYEAR=1900
DGENRE=Salsa
TTITLE0=Lloraras
TTITLE1=Sientate Ahi
TTITLE2=Rumba Rumbero
TTITLE3=Sigue Tu Camino
TTITLE4=La Mano
TTITLE5=Mi Bajo Y Yo
TTITLE6=Monta Mi Caballo
TTITLE7=Hazme El Amor (A Duo Con La India)
TTITLE8=Melao De Cana
TTITLE9=Tiene Coimbre
TTITLE10=Arroz Con Manteca
TTITLE11=Mata Siguaraya
TTITLE12=Madre
TTITLE13=Consigueme Eso
TTITLE14=Con Un Amor Se Borra Otro Amor
EXTD=
EXTT0=
EXTT1=
EXTT2=
EXTT3=
EXTT4=
EXTT5=
EXTT6=
EXTT7=
EXTT8=
EXTT9=
EXTT10=
EXTT11=
EXTT12=
EXTT13=
EXTT14=
PLAYORDER=
